<svg xmlns="http://www.w3.org/2000/svg" fill="none" viewBox="0 0 45 45" height="45" width="45">
<path fill="black" d="M22.5 32.625C21.3687 32.6252 20.2788 32.1993 19.4474 31.4321C18.6159 30.6649 18.104 29.6127 18.0135 28.485C15.0124 27.4227 12.4831 25.3344 10.8721 22.5886C9.26099 19.8428 8.67177 16.6161 9.20841 13.4781C9.74504 10.3401 11.373 7.4926 13.805 5.43821C16.2369 3.38381 19.3165 2.25464 22.5 2.25C25.886 2.24951 29.1486 3.52145 31.6408 5.81361C34.133 8.10577 35.6728 11.2508 35.955 14.625C35.9644 14.7714 35.9433 14.9181 35.8929 15.0558C35.8426 15.1936 35.7641 15.3193 35.6625 15.4251C35.561 15.5309 35.4385 15.6145 35.3029 15.6704C35.1674 15.7263 35.0216 15.7534 34.875 15.75C34.5736 15.7424 34.2858 15.6231 34.0675 15.4152C33.8492 15.2073 33.716 14.9257 33.6938 14.625C33.4934 12.6356 32.7664 10.7356 31.5877 9.12054C30.409 7.50547 28.8212 6.23371 26.9877 5.4362C25.1542 4.63868 23.1413 4.34422 21.1562 4.58313C19.171 4.82203 17.2855 5.58568 15.6935 6.79545C14.1016 8.00521 12.8609 9.61739 12.099 11.466C11.3372 13.3146 11.0818 15.3329 11.3591 17.313C11.6365 19.2931 12.4365 21.1635 13.6769 22.7317C14.9173 24.2999 16.5532 25.5091 18.4163 26.235C18.7552 25.5025 19.285 24.8747 19.95 24.4173C20.615 23.9599 21.3908 23.6898 22.1961 23.6353C23.0014 23.5808 23.8065 23.7438 24.5271 24.1074C25.2477 24.4709 25.8573 25.0216 26.2919 25.7017C26.7265 26.3818 26.9703 27.1663 26.9975 27.973C27.0248 28.7796 26.8346 29.5788 26.4469 30.2867C26.0592 30.9946 25.4882 31.5852 24.7938 31.9966C24.0994 32.408 23.3071 32.625 22.5 32.625ZM11.2702 27H11.475C12.3525 27.8573 13.3268 28.6133 14.382 29.25H11.2702C10.008 29.25 9 30.2558 9 31.5C9 34.4453 10.3995 36.639 12.7642 38.1442C15.1718 39.681 18.5962 40.5 22.5 40.5C26.4037 40.5 29.8282 39.681 32.2357 38.1442C34.5982 36.6367 36 34.4475 36 31.5C36 30.9033 35.7629 30.331 35.341 29.909C34.919 29.4871 34.3467 29.25 33.75 29.25H29.1577C29.2836 28.5053 29.2836 27.7447 29.1577 27H33.75C34.9435 27 36.0881 27.4741 36.932 28.318C37.7759 29.1619 38.25 30.3065 38.25 31.5C38.25 35.3047 36.3757 38.1735 33.4462 40.0433C30.5618 41.8815 26.6737 42.75 22.5 42.75C18.3263 42.75 14.4383 41.8815 11.5538 40.0433C8.62425 38.1758 6.75 35.3025 6.75 31.5C6.75 28.9958 8.78175 27 11.2702 27ZM31.5 15.75C31.5005 17.2724 31.1148 18.7701 30.3789 20.1029C29.6431 21.4357 28.5811 22.5601 27.2925 23.3708C26.6918 22.7651 25.9818 22.2787 25.2 21.9375C26.6213 21.3172 27.7856 20.2264 28.4973 18.8486C29.2089 17.4708 29.4244 15.89 29.1076 14.3719C28.7908 12.8539 27.9609 11.4912 26.7576 10.5131C25.5542 9.53498 24.0507 9.00102 22.5 9.00102C20.9493 9.00102 19.4458 9.53498 18.2424 10.5131C17.0391 11.4912 16.2092 12.8539 15.8924 14.3719C15.5756 15.89 15.7911 17.4708 16.5027 18.8486C17.2144 20.2264 18.3787 21.3172 19.8 21.9375C19.0125 22.2817 18.3038 22.77 17.7075 23.3708C15.9984 22.296 14.7004 20.6778 14.022 18.7763C13.6759 17.8049 13.4993 16.7812 13.5 15.75C13.5 13.3631 14.4482 11.0739 16.136 9.38604C17.8239 7.69821 20.1131 6.75 22.5 6.75C24.8869 6.75 27.1761 7.69821 28.864 9.38604C30.5518 11.0739 31.5 13.3631 31.5 15.75Z"></path>
</svg>
