<svg xmlns="http://www.w3.org/2000/svg" fill="none" viewBox="0 0 44 44" height="44" width="44">
<path fill="#242424" d="M16 14.75C16 14.5511 16.079 14.3603 16.2197 14.2197C16.3603 14.079 16.5511 14 16.75 14H28.75C28.9489 14 29.1397 14.079 29.2803 14.2197C29.421 14.3603 29.5 14.5511 29.5 14.75C29.5 14.9489 29.421 15.1397 29.2803 15.2803C29.1397 15.421 28.9489 15.5 28.75 15.5H23.831C23.905 15.5707 23.977 15.643 24.047 15.717C24.7919 16.5188 25.2756 17.5281 25.434 18.611H28.75C28.9489 18.611 29.1397 18.69 29.2803 18.8307C29.421 18.9713 29.5 19.1621 29.5 19.361C29.5 19.5599 29.421 19.7507 29.2803 19.8913C29.1397 20.032 28.9489 20.111 28.75 20.111H25.466C25.342 21.256 24.874 22.375 24.047 23.255C23.06 24.307 21.607 24.972 19.75 24.972H18.68L25.756 31.447C25.8325 31.5124 25.8951 31.5925 25.94 31.6825C25.985 31.7726 26.0113 31.8708 26.0175 31.9712C26.0236 32.0717 26.0095 32.1724 25.976 32.2673C25.9424 32.3622 25.8901 32.4493 25.8222 32.5236C25.7543 32.5978 25.6721 32.6576 25.5805 32.6995C25.489 32.7413 25.39 32.7643 25.2893 32.767C25.1887 32.7697 25.0886 32.7522 24.9949 32.7154C24.9012 32.6787 24.8159 32.6234 24.744 32.553L16.244 24.775C16.133 24.6729 16.0553 24.5396 16.0212 24.3927C15.9871 24.2458 15.998 24.0919 16.0527 23.9513C16.1073 23.8107 16.2031 23.6898 16.3275 23.6045C16.4519 23.5192 16.5991 23.4733 16.75 23.473H19.75C21.227 23.473 22.273 22.955 22.953 22.23C23.4962 21.6434 23.846 20.904 23.955 20.112H16.75C16.5511 20.112 16.3603 20.033 16.2197 19.8923C16.079 19.7517 16 19.5609 16 19.362C16 19.1631 16.079 18.9723 16.2197 18.8317C16.3603 18.691 16.5511 18.612 16.75 18.612H23.91C23.7677 17.9136 23.4367 17.2675 22.953 16.744C22.273 16.02 21.227 15.5 19.75 15.5H16.75C16.5511 15.5 16.3603 15.421 16.2197 15.2803C16.079 15.1397 16 14.9489 16 14.75Z" clip-rule="evenodd" fill-rule="evenodd"></path>
<path fill="#242424" d="M22.0092 3.66669C32.1347 3.66669 40.3425 11.8745 40.3425 22C40.3425 32.1255 32.1347 40.3334 22.0092 40.3334C17.7347 40.3396 13.5935 38.8461 10.307 36.113L9.85967 35.7299L11.5115 32.2429C13.8728 34.663 16.9978 36.193 20.3576 36.5738C23.7173 36.9546 27.1055 36.1629 29.9485 34.3325C32.7916 32.5022 34.9149 29.7458 35.9591 26.5298C37.0033 23.3138 36.9042 19.8358 35.6787 16.6845C34.4531 13.5331 32.1764 10.902 29.2337 9.23648C26.2911 7.57096 22.8634 6.97332 19.5308 7.54473C16.1981 8.11614 13.1653 9.82149 10.9456 12.3721C8.72584 14.9228 7.4556 18.1621 7.34984 21.5417L7.3425 22H11.9258L6.96484 32.4794C4.81796 29.4071 3.66956 25.7481 3.67584 22C3.67584 11.8745 11.8837 3.66669 22.0092 3.66669Z"></path>
</svg>
